<svg width="18" height="18" viewBox="0 0 18 18" fill="none" xmlns="http://www.w3.org/2000/svg">
<path d="M16.5 9C16.5 13.1421 13.1421 16.5 9 16.5C4.85786 16.5 1.5 13.1421 1.5 9C1.5 4.85786 4.85786 1.5 9 1.5C13.1421 1.5 16.5 4.85786 16.5 9ZM9.2688 7.03684C8.53928 7.34026 7.08135 7.9683 4.89495 8.92087C4.53991 9.06203 4.35393 9.20018 4.337 9.33518C4.30838 9.56348 4.59421 9.65333 4.98343 9.77572C5.03638 9.79237 5.09124 9.80962 5.14747 9.82792C5.53041 9.95235 6.04553 10.098 6.31332 10.1038C6.55623 10.109 6.82735 10.0089 7.12667 9.80333C9.1695 8.42438 10.224 7.7274 10.2902 7.7124C10.3369 7.70175 10.4017 7.68847 10.4455 7.7274C10.4894 7.7664 10.485 7.8402 10.4804 7.86C10.4521 7.98075 9.33008 9.02385 8.7495 9.56363C8.57633 9.72458 8.40758 9.88898 8.23748 10.0529C7.88175 10.3958 7.61497 10.653 8.25225 11.073C8.8983 11.4988 9.54922 11.9237 10.1793 12.3728C10.49 12.5944 10.7692 12.7934 11.1141 12.7617C11.3146 12.7432 11.5216 12.5548 11.6266 11.9927C11.8751 10.6645 12.3635 7.78657 12.4764 6.60062C12.4863 6.49673 12.4739 6.36375 12.4639 6.30538C12.4539 6.247 12.433 6.16383 12.3572 6.10226C12.2672 6.02935 12.1285 6.01397 12.0665 6.01507C11.7844 6.02004 11.3516 6.17053 9.2688 7.03684Z" fill="black"/>
</svg>
