<svg width="18" height="18" viewBox="0 0 18 18" fill="none" xmlns="http://www.w3.org/2000/svg">
<path d="M9.00099 1.5C13.1431 1.5 16.501 4.85786 16.501 9C16.501 13.1421 13.1431 16.5 9.00099 16.5C7.62557 16.5 6.33662 16.1298 5.22839 15.4835L1.50411 16.5L2.51808 12.7736C1.87145 11.6652 1.50098 10.3759 1.50098 9C1.50098 4.85786 4.85884 1.5 9.00099 1.5ZM6.29448 5.48125C6.19744 5.48807 6.10229 5.51177 6.01567 5.55608C5.95068 5.58933 5.89035 5.63738 5.79556 5.72689C5.70605 5.81141 5.65417 5.88523 5.59951 5.9564C5.32223 6.3174 5.17321 6.76054 5.17598 7.21574C5.17748 7.5837 5.27306 7.9413 5.42401 8.2752C5.73011 8.9523 6.2349 9.6681 6.9017 10.3319C7.06187 10.4914 7.21879 10.6526 7.388 10.8015C8.21559 11.5302 9.20184 12.0556 10.2683 12.3362C10.2683 12.3362 10.6883 12.4007 10.6944 12.401C10.8335 12.4085 10.9724 12.3985 11.1117 12.3913C11.3302 12.3801 11.5435 12.321 11.7365 12.2182C11.8607 12.1521 11.9194 12.1192 12.0236 12.0535C12.0236 12.0535 12.0555 12.0319 12.1172 11.986C12.2184 11.9106 12.281 11.8575 12.3652 11.7701C12.4273 11.7056 12.4807 11.6293 12.5219 11.5435C12.5806 11.4211 12.6396 11.1874 12.6631 10.9934C12.681 10.8452 12.6756 10.7642 12.6737 10.7141C12.6704 10.6334 12.6038 10.5503 12.5307 10.5151L12.0946 10.319C12.0946 10.319 11.4425 10.0352 11.0436 9.85328C11.0021 9.8343 10.9566 9.82553 10.9109 9.82275C10.8109 9.8166 10.6988 9.8427 10.6274 9.91785C10.6237 9.91635 10.574 9.95925 10.0314 10.6166C10.0015 10.6524 9.93137 10.7302 9.81009 10.7229C9.79179 10.7216 9.77357 10.719 9.75579 10.7143C9.70667 10.7014 9.65882 10.6843 9.61202 10.6645C9.51924 10.6251 9.48669 10.6102 9.42332 10.5829C8.99034 10.3937 8.59299 10.1407 8.24177 9.831C8.14757 9.74805 8.05997 9.65872 7.96967 9.5712C7.65452 9.26572 7.39651 8.94082 7.20457 8.62035C7.19409 8.60288 7.17794 8.5776 7.16055 8.54932C7.12915 8.49825 7.09451 8.4375 7.08365 8.3958C7.05578 8.28547 7.12973 8.19683 7.12973 8.19683C7.12973 8.19683 7.31228 7.99725 7.3971 7.88873C7.4787 7.78425 7.54914 7.6821 7.59399 7.60928C7.68234 7.46725 7.71032 7.32046 7.66389 7.20722C7.45347 6.69424 7.23638 6.18402 7.01264 5.67671C6.96848 5.57659 6.83713 5.50384 6.71768 5.49005C6.67723 5.48538 6.6368 5.48068 6.59618 5.47801C6.49564 5.47311 6.39489 5.47419 6.29448 5.48125Z" fill="black"/>
</svg>
